<mxfile host="app.diagrams.net" modified="2023-06-04T22:44:55.259Z" agent="Mozilla/5.0 (Windows NT 10.0; Win64; x64) AppleWebKit/537.36 (KHTML, like Gecko) Chrome/113.0.0.0 Safari/537.36" etag="K8-xNPv6SOAKzGXalWUD" version="21.3.7" type="device">
  <diagram name="Page-1" id="4bSO2yYPW5lFYpUSOC2u">
    <mxGraphModel dx="1502" dy="549" grid="0" gridSize="10" guides="1" tooltips="1" connect="1" arrows="1" fold="1" page="0" pageScale="1" pageWidth="850" pageHeight="1100" math="0" shadow="0">
      <root>
        <mxCell id="0" />
        <mxCell id="1" parent="0" />
        <mxCell id="KCya6ITL2GQZHAc8fUe8-1" value="P0.0" style="swimlane;whiteSpace=wrap;html=1;startSize=23;" parent="1" vertex="1">
          <mxGeometry x="240" y="120" width="160" height="120" as="geometry" />
        </mxCell>
        <mxCell id="KCya6ITL2GQZHAc8fUe8-12" value="Upravljanje narudžbom" style="text;html=1;strokeColor=none;fillColor=none;align=center;verticalAlign=middle;whiteSpace=wrap;rounded=0;" parent="KCya6ITL2GQZHAc8fUe8-1" vertex="1">
          <mxGeometry x="50" y="45" width="60" height="30" as="geometry" />
        </mxCell>
        <mxCell id="KCya6ITL2GQZHAc8fUe8-2" value="" style="endArrow=classic;html=1;rounded=0;" parent="1" edge="1">
          <mxGeometry relative="1" as="geometry">
            <mxPoint x="100" y="160" as="sourcePoint" />
            <mxPoint x="240" y="160" as="targetPoint" />
          </mxGeometry>
        </mxCell>
        <mxCell id="KCya6ITL2GQZHAc8fUe8-3" value="Popis naruđbi" style="edgeLabel;resizable=0;html=1;align=center;verticalAlign=middle;" parent="KCya6ITL2GQZHAc8fUe8-2" connectable="0" vertex="1">
          <mxGeometry relative="1" as="geometry" />
        </mxCell>
        <mxCell id="KCya6ITL2GQZHAc8fUe8-4" value="" style="rounded=0;whiteSpace=wrap;html=1;" parent="1" vertex="1">
          <mxGeometry x="240" y="320" width="160" height="60" as="geometry" />
        </mxCell>
        <mxCell id="KCya6ITL2GQZHAc8fUe8-5" value="" style="endArrow=classic;html=1;rounded=0;exitX=0.5;exitY=1;exitDx=0;exitDy=0;entryX=0.5;entryY=0;entryDx=0;entryDy=0;" parent="1" source="KCya6ITL2GQZHAc8fUe8-1" target="KCya6ITL2GQZHAc8fUe8-4" edge="1">
          <mxGeometry relative="1" as="geometry">
            <mxPoint x="320" y="320" as="sourcePoint" />
            <mxPoint x="420" y="320" as="targetPoint" />
          </mxGeometry>
        </mxCell>
        <mxCell id="KCya6ITL2GQZHAc8fUe8-6" value="Provjera stanja" style="edgeLabel;resizable=0;html=1;align=center;verticalAlign=middle;" parent="KCya6ITL2GQZHAc8fUe8-5" connectable="0" vertex="1">
          <mxGeometry relative="1" as="geometry" />
        </mxCell>
        <mxCell id="KCya6ITL2GQZHAc8fUe8-7" value="Skladište" style="text;html=1;strokeColor=none;fillColor=none;align=center;verticalAlign=middle;whiteSpace=wrap;rounded=0;" parent="1" vertex="1">
          <mxGeometry x="290" y="335" width="60" height="30" as="geometry" />
        </mxCell>
        <mxCell id="KCya6ITL2GQZHAc8fUe8-8" value="P0.1" style="swimlane;whiteSpace=wrap;html=1;" parent="1" vertex="1">
          <mxGeometry x="240" y="460" width="160" height="120" as="geometry" />
        </mxCell>
        <mxCell id="KCya6ITL2GQZHAc8fUe8-9" value="Transakcija i generiranje računa" style="text;html=1;strokeColor=none;fillColor=none;align=center;verticalAlign=middle;whiteSpace=wrap;rounded=0;" parent="KCya6ITL2GQZHAc8fUe8-8" vertex="1">
          <mxGeometry x="35" y="30" width="90" height="80" as="geometry" />
        </mxCell>
        <mxCell id="KCya6ITL2GQZHAc8fUe8-10" value="" style="endArrow=classic;html=1;rounded=0;exitX=0.5;exitY=1;exitDx=0;exitDy=0;entryX=0.5;entryY=0;entryDx=0;entryDy=0;" parent="1" source="KCya6ITL2GQZHAc8fUe8-4" target="KCya6ITL2GQZHAc8fUe8-8" edge="1">
          <mxGeometry relative="1" as="geometry">
            <mxPoint x="280" y="360" as="sourcePoint" />
            <mxPoint x="380" y="360" as="targetPoint" />
          </mxGeometry>
        </mxCell>
        <mxCell id="KCya6ITL2GQZHAc8fUe8-11" value="Količina robe" style="edgeLabel;resizable=0;html=1;align=center;verticalAlign=middle;" parent="KCya6ITL2GQZHAc8fUe8-10" connectable="0" vertex="1">
          <mxGeometry relative="1" as="geometry" />
        </mxCell>
        <mxCell id="KCya6ITL2GQZHAc8fUe8-13" value="" style="endArrow=classic;html=1;rounded=0;exitX=1;exitY=0.5;exitDx=0;exitDy=0;" parent="1" source="KCya6ITL2GQZHAc8fUe8-4" edge="1">
          <mxGeometry relative="1" as="geometry">
            <mxPoint x="280" y="360" as="sourcePoint" />
            <mxPoint x="520" y="180" as="targetPoint" />
            <Array as="points">
              <mxPoint x="470" y="350" />
              <mxPoint x="470" y="260" />
              <mxPoint x="470" y="180" />
            </Array>
          </mxGeometry>
        </mxCell>
        <mxCell id="KCya6ITL2GQZHAc8fUe8-14" value="Popis robe" style="edgeLabel;resizable=0;html=1;align=center;verticalAlign=middle;" parent="KCya6ITL2GQZHAc8fUe8-13" connectable="0" vertex="1">
          <mxGeometry relative="1" as="geometry" />
        </mxCell>
        <mxCell id="KCya6ITL2GQZHAc8fUe8-15" value="P0.2" style="swimlane;whiteSpace=wrap;html=1;" parent="1" vertex="1">
          <mxGeometry x="520" y="120" width="160" height="120" as="geometry" />
        </mxCell>
        <mxCell id="KCya6ITL2GQZHAc8fUe8-19" value="Izvještaj" style="text;html=1;strokeColor=none;fillColor=none;align=center;verticalAlign=middle;whiteSpace=wrap;rounded=0;" parent="KCya6ITL2GQZHAc8fUe8-15" vertex="1">
          <mxGeometry x="50" y="50" width="60" height="30" as="geometry" />
        </mxCell>
        <mxCell id="KCya6ITL2GQZHAc8fUe8-17" value="" style="endArrow=classic;html=1;rounded=0;exitX=0;exitY=0.75;exitDx=0;exitDy=0;" parent="1" source="KCya6ITL2GQZHAc8fUe8-8" edge="1">
          <mxGeometry relative="1" as="geometry">
            <mxPoint x="360" y="360" as="sourcePoint" />
            <mxPoint x="100" y="200" as="targetPoint" />
            <Array as="points">
              <mxPoint x="200" y="550" />
              <mxPoint x="200" y="200" />
            </Array>
          </mxGeometry>
        </mxCell>
        <mxCell id="KCya6ITL2GQZHAc8fUe8-18" value="Rezultat" style="edgeLabel;resizable=0;html=1;align=center;verticalAlign=middle;" parent="KCya6ITL2GQZHAc8fUe8-17" connectable="0" vertex="1">
          <mxGeometry relative="1" as="geometry">
            <mxPoint x="-50" y="-150" as="offset" />
          </mxGeometry>
        </mxCell>
        <mxCell id="KCya6ITL2GQZHAc8fUe8-22" value="P0.3" style="swimlane;whiteSpace=wrap;html=1;" parent="1" vertex="1">
          <mxGeometry x="510" y="460" width="160" height="120" as="geometry" />
        </mxCell>
        <mxCell id="KCya6ITL2GQZHAc8fUe8-25" value="Pregled prošlosti" style="text;html=1;strokeColor=none;fillColor=none;align=center;verticalAlign=middle;whiteSpace=wrap;rounded=0;" parent="KCya6ITL2GQZHAc8fUe8-22" vertex="1">
          <mxGeometry x="50" y="45" width="60" height="30" as="geometry" />
        </mxCell>
        <mxCell id="KCya6ITL2GQZHAc8fUe8-26" value="" style="endArrow=classic;html=1;rounded=0;exitX=1;exitY=0.5;exitDx=0;exitDy=0;entryX=0;entryY=0.5;entryDx=0;entryDy=0;" parent="1" source="KCya6ITL2GQZHAc8fUe8-8" target="KCya6ITL2GQZHAc8fUe8-22" edge="1">
          <mxGeometry width="50" height="50" relative="1" as="geometry">
            <mxPoint x="500" y="450" as="sourcePoint" />
            <mxPoint x="550" y="400" as="targetPoint" />
          </mxGeometry>
        </mxCell>
      </root>
    </mxGraphModel>
  </diagram>
</mxfile>
